<svg width="140" height="24" viewBox="0 0 140 24" fill="none" xmlns="http://www.w3.org/2000/svg">
<g clip-path="url(#clip0_5_32)">
<path d="M30.5621 18.6334V0.0202065H32.8216V6.787H32.8737C33.8503 5.3605 35.1852 4.71393 36.7502 4.68766C40.3185 4.68766 42.3479 7.64371 42.3479 11.4545C42.3479 14.6954 41.013 19.0234 36.442 19.0234C34.1565 19.0234 33.2079 17.702 32.7456 16.9503H32.6935V18.6355H30.5621V18.6334ZM36.3399 6.73447C33.0798 6.73447 32.7196 10.2866 32.7196 12.489C32.7196 16.0916 34.953 17.0514 36.392 17.0514C38.8576 17.0514 40.0123 14.7964 40.0123 11.8141C40.0123 10.0785 39.8322 6.73447 36.3399 6.73447Z" fill="white"/>
<path d="M43.6588 9.19751C43.7609 5.95656 45.8923 4.68766 49.2044 4.68766C50.2831 4.68766 54.1857 4.99882 54.1857 8.47214V16.2755C54.1857 16.8453 54.4679 17.0796 54.9302 17.0796C55.1363 17.0796 55.4185 17.0271 55.6747 16.9766V18.6355C55.2904 18.7385 54.9562 18.8941 54.4419 18.8941C52.4386 18.8941 52.1304 17.8576 52.0543 16.821C51.1817 17.7808 49.8208 19.0234 47.2011 19.0234C44.7355 19.0234 42.9904 17.4413 42.9904 15.1096C42.9904 13.968 43.3246 11.3251 47.073 10.8584L50.7955 10.3917C51.3358 10.3391 51.9763 10.133 51.9763 8.78532C51.9763 7.35882 50.9496 6.58091 48.8182 6.58091C46.2505 6.58091 45.8903 8.16299 45.7362 9.19953H43.6588V9.19751ZM51.9262 11.7111C51.566 11.996 51.0016 12.2041 48.2038 12.5658C47.0991 12.7213 45.3279 13.0588 45.3279 14.7681C45.3279 16.2452 46.0724 17.1281 47.7675 17.1281C49.8729 17.1281 51.9282 15.7542 51.9282 13.9397V11.7111H51.9262Z" fill="white"/>
<path d="M67.6665 18.6334H65.407V10.2866C65.407 7.92861 64.7386 6.73447 62.5311 6.73447C61.2483 6.73447 58.9868 7.56491 58.9868 11.2443V18.6334H56.7273V5.0756H58.8587V6.9931H58.9107C59.399 6.26772 60.6579 4.68564 62.9674 4.68564C65.0468 4.68564 67.6665 5.54033 67.6665 9.4036V18.6334Z" fill="white"/>
<path d="M80.8652 18.6334H78.7338V16.7665H78.6817C77.7071 18.6072 76.1661 19.0214 74.8552 19.0214C70.2842 19.0214 68.9493 14.6914 68.9493 11.4524C68.9493 7.64169 70.9787 4.68564 74.547 4.68564C76.9866 4.68564 78.0133 6.21519 78.5517 6.9931H78.6037V0.0202065H80.8632V18.6334H80.8652ZM74.9073 17.0514C76.3442 17.0514 78.5797 16.0916 78.5797 12.489C78.5797 10.2846 78.2194 6.73447 74.9593 6.73447C71.467 6.73447 71.2869 10.0785 71.2869 11.8161C71.2869 14.7964 72.4416 17.0514 74.9073 17.0514Z" fill="white"/>
<path d="M92.1366 9.63799C91.8545 7.82354 90.8518 6.73447 88.9525 6.73447C86.1547 6.73447 85.2561 9.42987 85.2561 11.8404C85.2561 14.1741 85.8205 17.0514 88.9285 17.0514C90.4435 17.0514 91.7524 15.9098 92.1386 13.8367H94.3201C94.0899 15.9886 92.7791 19.0214 88.8505 19.0214C85.076 19.0214 82.8425 16.1441 82.8425 12.2303C82.8425 8.03166 84.8458 4.68766 89.2868 4.68766C92.8051 4.68766 94.14 7.28002 94.3201 9.64001H92.1366V9.63799Z" fill="white"/>
<path d="M95.2186 9.19751C95.3207 5.95656 97.4521 4.68766 100.764 4.68766C101.843 4.68766 105.746 4.99882 105.746 8.47214V16.2755C105.746 16.8453 106.028 17.0796 106.49 17.0796C106.696 17.0796 106.978 17.0271 107.235 16.9766V18.6355C106.85 18.7385 106.516 18.8941 106.002 18.8941C103.998 18.8941 103.69 17.8576 103.614 16.821C102.742 17.7808 101.381 19.0234 98.7609 19.0234C96.2953 19.0234 94.5502 17.4413 94.5502 15.1096C94.5502 13.968 94.8844 11.3251 98.6329 10.8584L102.355 10.3917C102.894 10.3391 103.536 10.133 103.536 8.78532C103.536 7.35882 102.509 6.58091 100.378 6.58091C97.8103 6.58091 97.4501 8.16299 97.296 9.19953H95.2186V9.19751ZM103.486 11.7111C103.126 11.996 102.561 12.2041 99.7636 12.5658C98.6589 12.7213 96.8877 13.0588 96.8877 14.7681C96.8877 16.2452 97.6322 17.1281 99.3273 17.1281C101.433 17.1281 103.486 15.7542 103.486 13.9397V11.7111Z" fill="white"/>
<path d="M108.287 5.0756H110.419V6.9931H110.471C110.959 6.26772 112.114 4.68564 114.527 4.68564C116.941 4.68564 117.711 6.16265 118.096 6.89005C119.226 5.61913 120.125 4.68564 122.204 4.68564C123.643 4.68564 126.365 5.43728 126.365 9.24802V18.6314H124.106V9.87035C124.106 8.00337 123.541 6.73447 121.614 6.73447C119.715 6.73447 118.456 8.54891 118.456 10.3634V18.6334H116.196V9.24802C116.196 8.10642 115.76 6.73245 114.091 6.73245C112.808 6.73245 110.547 7.56289 110.547 11.2423V18.6314H108.287V5.0756Z" fill="white"/>
<path d="M128.214 5.0756H130.346V6.9931H130.398C130.936 6.21519 131.965 4.68564 134.402 4.68564C137.971 4.68564 140 7.64169 140 11.4524C140 14.6934 138.665 19.0214 134.094 19.0214C132.297 19.0214 131.116 18.1667 130.526 17.2069H130.474V24H128.214V5.0756ZM134.042 17.0514C136.508 17.0514 137.663 14.7964 137.663 11.8141C137.663 10.0764 137.482 6.73245 133.99 6.73245C130.73 6.73245 130.37 10.2846 130.37 12.487C130.37 16.0936 132.603 17.0514 134.042 17.0514Z" fill="white"/>
<path d="M21.9304 18.6334H0L8.52961 0H30.46L21.9304 18.6334Z" fill="#2AA7BA"/>
</g>
<defs>
<clipPath id="clip0_5_32">
<rect width="140" height="24" fill="white"/>
</clipPath>
</defs>
</svg>
